<svg width="313" height="52" viewBox="0 0 313 52" fill="none" xmlns="http://www.w3.org/2000/svg">
<g filter="url(#filter0_d_1874_8353)">
<mask id="path-1-inside-1_1874_8353" fill="white">
<path d="M4 18C4 8.05888 12.0589 0 22 0H291C300.941 0 309 8.05887 309 18V26C309 35.9411 300.941 44 291 44H22C12.0589 44 4 35.9411 4 26V18Z"/>
</mask>
<g clip-path="url(#paint0_diamond_1874_8353_clip_path)" data-figma-skip-parse="true"><g transform="matrix(-0.0180038 0.0835 -0.311018 -0.0657311 209.347 24)"><rect x="0" y="0" width="753.92" height="654.855" fill="url(#paint0_diamond_1874_8353)" opacity="1" shape-rendering="crispEdges"/><rect x="0" y="0" width="753.92" height="654.855" transform="scale(1 -1)" fill="url(#paint0_diamond_1874_8353)" opacity="1" shape-rendering="crispEdges"/><rect x="0" y="0" width="753.92" height="654.855" transform="scale(-1 1)" fill="url(#paint0_diamond_1874_8353)" opacity="1" shape-rendering="crispEdges"/><rect x="0" y="0" width="753.92" height="654.855" transform="scale(-1)" fill="url(#paint0_diamond_1874_8353)" opacity="1" shape-rendering="crispEdges"/></g></g><path d="M4 18C4 8.05888 12.0589 0 22 0H291C300.941 0 309 8.05887 309 18V26C309 35.9411 300.941 44 291 44H22C12.0589 44 4 35.9411 4 26V18Z" data-figma-gradient-fill="{&#34;type&#34;:&#34;GRADIENT_DIAMOND&#34;,&#34;stops&#34;:[{&#34;color&#34;:{&#34;r&#34;:1.0,&#34;g&#34;:0.93604177236557007,&#34;b&#34;:0.81796497106552124,&#34;a&#34;:1.0},&#34;position&#34;:0.081730768084526062},{&#34;color&#34;:{&#34;r&#34;:0.91372549533843994,&#34;g&#34;:0.70980393886566162,&#34;b&#34;:0.33333334326744080,&#34;a&#34;:1.0},&#34;position&#34;:0.28365385532379150},{&#34;color&#34;:{&#34;r&#34;:0.82322776317596436,&#34;g&#34;:0.61930620670318604,&#34;b&#34;:0.24283561110496521,&#34;a&#34;:1.0},&#34;position&#34;:0.48076921701431274},{&#34;color&#34;:{&#34;r&#34;:0.85349684953689575,&#34;g&#34;:0.63553845882415771,&#34;b&#34;:0.23315364122390747,&#34;a&#34;:1.0},&#34;position&#34;:1.0}],&#34;stopsVar&#34;:[{&#34;color&#34;:{&#34;r&#34;:1.0,&#34;g&#34;:0.93604177236557007,&#34;b&#34;:0.81796497106552124,&#34;a&#34;:1.0},&#34;position&#34;:0.081730768084526062},{&#34;color&#34;:{&#34;r&#34;:0.91372549533843994,&#34;g&#34;:0.70980393886566162,&#34;b&#34;:0.33333334326744080,&#34;a&#34;:1.0},&#34;position&#34;:0.28365385532379150},{&#34;color&#34;:{&#34;r&#34;:0.82322776317596436,&#34;g&#34;:0.61930620670318604,&#34;b&#34;:0.24283561110496521,&#34;a&#34;:1.0},&#34;position&#34;:0.48076921701431274},{&#34;color&#34;:{&#34;r&#34;:0.85349684953689575,&#34;g&#34;:0.63553845882415771,&#34;b&#34;:0.23315364122390747,&#34;a&#34;:1.0},&#34;position&#34;:1.0}],&#34;transform&#34;:{&#34;m00&#34;:-36.007621765136719,&#34;m01&#34;:-622.03601074218750,&#34;m02&#34;:538.36834716796875,&#34;m10&#34;:166.99998474121094,&#34;m11&#34;:-131.46217346191406,&#34;m12&#34;:6.2310853004455566},&#34;opacity&#34;:1.0,&#34;blendMode&#34;:&#34;NORMAL&#34;,&#34;visible&#34;:true}"/>
<path d="M22 0V6H291V0V-6H22V0ZM309 18H303V26H309H315V18H309ZM291 44V38H22V44V50H291V44ZM4 26H10V18H4H-2V26H4ZM22 44V38C15.3726 38 10 32.6274 10 26H4H-2C-2 39.2548 8.74517 50 22 50V44ZM309 26H303C303 32.6274 297.627 38 291 38V44V50C304.255 50 315 39.2548 315 26H309ZM291 0V6C297.627 6 303 11.3726 303 18H309H315C315 4.74516 304.255 -6 291 -6V0ZM22 0V-6C8.74516 -6 -2 4.74517 -2 18H4H10C10 11.3726 15.3726 6 22 6V0Z" fill="url(#paint1_linear_1874_8353)" mask="url(#path-1-inside-1_1874_8353)"/>
</g>
<defs>
<filter id="filter0_d_1874_8353" x="0" y="0" width="313" height="52" filterUnits="userSpaceOnUse" color-interpolation-filters="sRGB">
<feFlood flood-opacity="0" result="BackgroundImageFix"/>
<feColorMatrix in="SourceAlpha" type="matrix" values="0 0 0 0 0 0 0 0 0 0 0 0 0 0 0 0 0 0 127 0" result="hardAlpha"/>
<feOffset dy="4"/>
<feGaussianBlur stdDeviation="2"/>
<feComposite in2="hardAlpha" operator="out"/>
<feColorMatrix type="matrix" values="0 0 0 0 0 0 0 0 0 0 0 0 0 0 0 0 0 0 0.25 0"/>
<feBlend mode="normal" in2="BackgroundImageFix" result="effect1_dropShadow_1874_8353"/>
<feBlend mode="normal" in="SourceGraphic" in2="effect1_dropShadow_1874_8353" result="shape"/>
</filter>
<clipPath id="paint0_diamond_1874_8353_clip_path"><path d="M4 18C4 8.05888 12.0589 0 22 0H291C300.941 0 309 8.05887 309 18V26C309 35.9411 300.941 44 291 44H22C12.0589 44 4 35.9411 4 26V18Z"/></clipPath><linearGradient id="paint0_diamond_1874_8353" x1="0" y1="0" x2="500" y2="500" gradientUnits="userSpaceOnUse">
<stop offset="0.0817308" stop-color="#FFEFD1"/>
<stop offset="0.283654" stop-color="#E9B555"/>
<stop offset="0.480769" stop-color="#D29E3E"/>
<stop offset="1" stop-color="#DAA23B"/>
</linearGradient>
<linearGradient id="paint1_linear_1874_8353" x1="4" y1="22" x2="309" y2="22" gradientUnits="userSpaceOnUse">
<stop stop-color="#CA8608"/>
<stop offset="1" stop-color="#DDA949"/>
</linearGradient>
</defs>
</svg>
