<svg width="925" height="489" viewBox="0 0 925 489" fill="none" xmlns="http://www.w3.org/2000/svg">
<path d="M57.5647 0C50.9647 0 46.499 7.0091 47.4547 13.5396C47.8031 15.9198 47.9778 18.356 47.9658 20.835C47.8516 44.2929 31.0562 63.7682 8.87476 68.0757C4.02283 69.018 0 72.9479 0 77.8905V356.005C0 361.604 5.06909 365.815 10.6613 365.534C12.2383 365.455 13.8265 365.419 15.4248 365.427C62.5839 365.656 100.628 404.072 100.398 451.231C100.357 459.659 99.0967 467.796 96.7844 475.476C94.8547 481.884 99.2865 489 105.979 489H118.693C124.403 489 128.321 482.811 128.349 477.101L128.442 457.895C128.516 442.688 140.904 430.421 156.11 430.495L366.513 431.518C381.719 431.592 393.986 443.979 393.912 459.186L393.819 478.392C393.794 483.561 397.375 489 402.545 489H440.767C449.521 489 454.978 475.355 451.729 467.227C449.449 461.521 448.208 455.289 448.239 448.766L449.905 106.133C450.037 78.9976 472.142 57.1075 499.277 57.2393L915.956 59.2646C920.944 59.2889 925 55.2524 925 50.2647V20C925 8.95431 916.046 2.6173e-07 905 0H57.5647Z" fill="#681970"/>
</svg>
