<svg width="311" height="52" viewBox="0 0 311 52" fill="none" xmlns="http://www.w3.org/2000/svg">
<g filter="url(#filter0_d_573_1512)">
<mask id="path-1-inside-1_573_1512" fill="white">
<path d="M4 18C4 8.05888 12.0589 0 22 0H289C298.941 0 307 8.05888 307 18V26C307 35.9411 298.941 44 289 44H22C12.0589 44 4 35.9411 4 26V18Z"/>
</mask>
<g clip-path="url(#paint0_diamond_573_1512_clip_path)" data-figma-skip-parse="true"><g transform="matrix(-0.0178858 0.0835 -0.308979 -0.0657311 208 24)"><rect x="0" y="0" width="753.952" height="654.895" fill="url(#paint0_diamond_573_1512)" opacity="1" shape-rendering="crispEdges"/><rect x="0" y="0" width="753.952" height="654.895" transform="scale(1 -1)" fill="url(#paint0_diamond_573_1512)" opacity="1" shape-rendering="crispEdges"/><rect x="0" y="0" width="753.952" height="654.895" transform="scale(-1 1)" fill="url(#paint0_diamond_573_1512)" opacity="1" shape-rendering="crispEdges"/><rect x="0" y="0" width="753.952" height="654.895" transform="scale(-1)" fill="url(#paint0_diamond_573_1512)" opacity="1" shape-rendering="crispEdges"/></g></g><path d="M4 18C4 8.05888 12.0589 0 22 0H289C298.941 0 307 8.05888 307 18V26C307 35.9411 298.941 44 289 44H22C12.0589 44 4 35.9411 4 26V18Z" data-figma-gradient-fill="{&#34;type&#34;:&#34;GRADIENT_DIAMOND&#34;,&#34;stops&#34;:[{&#34;color&#34;:{&#34;r&#34;:1.0,&#34;g&#34;:0.93604177236557007,&#34;b&#34;:0.81796497106552124,&#34;a&#34;:1.0},&#34;position&#34;:0.081730768084526062},{&#34;color&#34;:{&#34;r&#34;:0.91372549533843994,&#34;g&#34;:0.70980393886566162,&#34;b&#34;:0.33333334326744080,&#34;a&#34;:1.0},&#34;position&#34;:0.28365385532379150},{&#34;color&#34;:{&#34;r&#34;:0.82322776317596436,&#34;g&#34;:0.61930620670318604,&#34;b&#34;:0.24283561110496521,&#34;a&#34;:1.0},&#34;position&#34;:0.48076921701431274},{&#34;color&#34;:{&#34;r&#34;:0.85349684953689575,&#34;g&#34;:0.63553845882415771,&#34;b&#34;:0.23315364122390747,&#34;a&#34;:1.0},&#34;position&#34;:1.0}],&#34;stopsVar&#34;:[{&#34;color&#34;:{&#34;r&#34;:1.0,&#34;g&#34;:0.93604177236557007,&#34;b&#34;:0.81796497106552124,&#34;a&#34;:1.0},&#34;position&#34;:0.081730768084526062},{&#34;color&#34;:{&#34;r&#34;:0.91372549533843994,&#34;g&#34;:0.70980393886566162,&#34;b&#34;:0.33333334326744080,&#34;a&#34;:1.0},&#34;position&#34;:0.28365385532379150},{&#34;color&#34;:{&#34;r&#34;:0.82322776317596436,&#34;g&#34;:0.61930620670318604,&#34;b&#34;:0.24283561110496521,&#34;a&#34;:1.0},&#34;position&#34;:0.48076921701431274},{&#34;color&#34;:{&#34;r&#34;:0.85349684953689575,&#34;g&#34;:0.63553845882415771,&#34;b&#34;:0.23315364122390747,&#34;a&#34;:1.0},&#34;position&#34;:1.0}],&#34;transform&#34;:{&#34;m00&#34;:-35.771507263183594,&#34;m01&#34;:-617.95709228515625,&#34;m02&#34;:534.86431884765625,&#34;m10&#34;:166.99998474121094,&#34;m11&#34;:-131.46217346191406,&#34;m12&#34;:6.2310853004455566},&#34;opacity&#34;:1.0,&#34;blendMode&#34;:&#34;NORMAL&#34;,&#34;visible&#34;:true}"/>
<path d="M22 0V6H289V0V-6H22V0ZM307 18H301V26H307H313V18H307ZM289 44V38H22V44V50H289V44ZM4 26H10V18H4H-2V26H4ZM22 44V38C15.3726 38 10 32.6274 10 26H4H-2C-2 39.2548 8.74516 50 22 50V44ZM307 26H301C301 32.6274 295.627 38 289 38V44V50C302.255 50 313 39.2548 313 26H307ZM289 0V6C295.627 6 301 11.3726 301 18H307H313C313 4.74517 302.255 -6 289 -6V0ZM22 0V-6C8.74517 -6 -2 4.74517 -2 18H4H10C10 11.3726 15.3726 6 22 6V0Z" fill="url(#paint1_linear_573_1512)" mask="url(#path-1-inside-1_573_1512)"/>
<path d="M40.0041 18.518C40.8189 18.3779 41.5048 17.8292 41.8203 17.065C42.1358 16.3008 42.0368 15.4281 41.5581 14.754C40.8434 13.7699 39.5239 13.4434 38.4328 13.9807C38.1945 12.8273 37.1788 12 36.0011 12C34.8234 12 33.8077 12.8273 33.5695 13.9807C32.4751 13.4418 31.1516 13.7721 30.4388 14.762C29.9637 15.4371 29.8675 16.3086 30.1839 17.0711C30.5004 17.8336 31.1853 18.3809 31.9988 18.5213" stroke="#58220F" stroke-width="2" stroke-linecap="round" stroke-linejoin="round"/>
<path d="M32 20.0137H40" stroke="#58220F" stroke-width="2" stroke-linecap="round" stroke-linejoin="round"/>
<path d="M40 18.5181V21.5001C40 23.7092 38.2091 25.5001 36 25.5001V25.5001C33.7909 25.5001 32 23.7092 32 21.5001V18.5214" stroke="#58220F" stroke-width="2" stroke-linecap="round" stroke-linejoin="round"/>
<path d="M33.1593 27.8899L33.8993 24.8999" stroke="#58220F" stroke-width="2" stroke-linecap="round" stroke-linejoin="round"/>
<path d="M38.0898 24.8999L38.8398 27.8899" stroke="#58220F" stroke-width="2" stroke-linecap="round" stroke-linejoin="round"/>
<path d="M27 31.5V31.1297C27 29.6995 28.0095 28.4681 29.412 28.1877L32.258 27.6187C32.4931 27.5716 32.7374 27.6198 32.937 27.7527V27.7527C34.7916 28.9897 37.2084 28.9897 39.063 27.7527V27.7527C39.2626 27.6198 39.5069 27.5716 39.742 27.6187L42.588 28.1877C43.9905 28.4681 45 29.6994 45 31.1297V31.5" stroke="#58220F" stroke-width="2" stroke-linecap="round" stroke-linejoin="round"/>
<path d="M58.942 17.76C60.3887 17.76 61.4947 18.1613 62.26 18.964C63.0347 19.7667 63.422 20.9053 63.422 22.38C63.422 23.8547 63.0347 24.9933 62.26 25.796C61.4947 26.5987 60.3887 27 58.942 27H55.022V17.76H58.942ZM58.704 25.18C59.488 25.18 60.0573 24.9467 60.412 24.48C60.776 24.004 60.958 23.304 60.958 22.38C60.958 21.456 60.776 20.7607 60.412 20.294C60.0573 19.818 59.488 19.58 58.704 19.58H57.43V25.18H58.704ZM67.3108 27V17.76H74.5068V19.622H69.7188V21.498H73.5268V23.248H69.7188V25.138H74.6888V27H67.3108ZM80.7909 25.138H85.4249V27H78.3829V17.76H80.7909V25.138ZM103.306 17.76V27H100.898V17.76H103.306ZM97.3705 17.76V27H94.9625V17.76H97.3705ZM102.186 21.414V23.276H96.1385V21.414H102.186ZM111.737 17.62C112.67 17.62 113.473 17.8113 114.145 18.194C114.826 18.5673 115.349 19.1087 115.713 19.818C116.077 20.5273 116.259 21.3813 116.259 22.38C116.259 23.3787 116.077 24.2327 115.713 24.942C115.349 25.6513 114.826 26.1973 114.145 26.58C113.473 26.9533 112.67 27.14 111.737 27.14C110.804 27.14 109.996 26.9533 109.315 26.58C108.634 26.1973 108.111 25.6513 107.747 24.942C107.383 24.2327 107.201 23.3787 107.201 22.38C107.201 21.3813 107.383 20.5273 107.747 19.818C108.111 19.1087 108.634 18.5673 109.315 18.194C109.996 17.8113 110.804 17.62 111.737 17.62ZM111.737 19.51C111.289 19.51 110.911 19.6173 110.603 19.832C110.295 20.0467 110.062 20.3687 109.903 20.798C109.744 21.218 109.665 21.7453 109.665 22.38C109.665 23.0053 109.744 23.5327 109.903 23.962C110.062 24.3913 110.295 24.7133 110.603 24.928C110.911 25.1427 111.289 25.25 111.737 25.25C112.185 25.25 112.558 25.1427 112.857 24.928C113.165 24.7133 113.398 24.3913 113.557 23.962C113.716 23.5327 113.795 23.0053 113.795 22.38C113.795 21.7453 113.716 21.218 113.557 20.798C113.398 20.3687 113.165 20.0467 112.857 19.832C112.558 19.6173 112.185 19.51 111.737 19.51ZM124.565 17.76C125.667 17.76 126.521 18.0213 127.127 18.544C127.743 19.0573 128.051 19.7433 128.051 20.602C128.051 21.5447 127.748 22.2633 127.141 22.758C126.535 23.2527 125.681 23.5 124.579 23.5L124.355 23.626H122.521V27H120.155V17.76H124.565ZM124.229 21.918C124.696 21.918 125.046 21.8247 125.279 21.638C125.513 21.4513 125.629 21.1527 125.629 20.742C125.629 20.3407 125.513 20.0467 125.279 19.86C125.046 19.6733 124.696 19.58 124.229 19.58H122.521V21.918H124.229ZM125.643 22.422L128.597 27H125.937L123.571 22.954L125.643 22.422ZM140.378 17.76V27H137.704L134.834 22.002L134.134 20.63H134.12L134.176 22.338V27H132.048V17.76H134.722L137.592 22.758L138.292 24.13H138.306L138.25 22.422V17.76H140.378ZM148.809 17.62C149.742 17.62 150.545 17.8113 151.217 18.194C151.898 18.5673 152.421 19.1087 152.785 19.818C153.149 20.5273 153.331 21.3813 153.331 22.38C153.331 23.3787 153.149 24.2327 152.785 24.942C152.421 25.6513 151.898 26.1973 151.217 26.58C150.545 26.9533 149.742 27.14 148.809 27.14C147.875 27.14 147.068 26.9533 146.387 26.58C145.705 26.1973 145.183 25.6513 144.819 24.942C144.455 24.2327 144.273 23.3787 144.273 22.38C144.273 21.3813 144.455 20.5273 144.819 19.818C145.183 19.1087 145.705 18.5673 146.387 18.194C147.068 17.8113 147.875 17.62 148.809 17.62ZM148.809 19.51C148.361 19.51 147.983 19.6173 147.675 19.832C147.367 20.0467 147.133 20.3687 146.975 20.798C146.816 21.218 146.737 21.7453 146.737 22.38C146.737 23.0053 146.816 23.5327 146.975 23.962C147.133 24.3913 147.367 24.7133 147.675 24.928C147.983 25.1427 148.361 25.25 148.809 25.25C149.257 25.25 149.63 25.1427 149.929 24.928C150.237 24.7133 150.47 24.3913 150.629 23.962C150.787 23.5327 150.867 23.0053 150.867 22.38C150.867 21.7453 150.787 21.218 150.629 20.798C150.47 20.3687 150.237 20.0467 149.929 19.832C149.63 19.6173 149.257 19.51 148.809 19.51ZM171.558 27H169.08L168.436 24.914H165.272L164.614 27H162.192L165.44 17.76H168.324L171.558 27ZM165.72 23.276H167.988L166.854 19.538L165.72 23.276ZM183.212 25.138H187.846V27H180.804V17.76H183.212V25.138ZM199.866 27H197.388L196.744 24.914H193.58L192.922 27H190.5L193.748 17.76H196.632L199.866 27ZM194.028 23.276H196.296L195.162 19.538L194.028 23.276ZM213.354 17.76C214.11 17.76 214.754 17.8813 215.286 18.124C215.818 18.3667 216.224 18.7167 216.504 19.174C216.784 19.6313 216.924 20.1867 216.924 20.84C216.924 21.4933 216.784 22.0487 216.504 22.506C216.224 22.9633 215.818 23.3133 215.286 23.556C214.754 23.7987 214.11 23.92 213.354 23.92H211.52V27H209.112V17.76H213.354ZM212.976 22.114C213.48 22.114 213.858 22.0113 214.11 21.806C214.372 21.5913 214.502 21.2693 214.502 20.84C214.502 20.4107 214.372 20.0933 214.11 19.888C213.858 19.6733 213.48 19.566 212.976 19.566H211.52V22.114H212.976ZM228.16 27H225.682L225.038 24.914H221.874L221.216 27H218.794L222.042 17.76H224.926L228.16 27ZM222.322 23.276H224.59L223.456 19.538L222.322 23.276ZM233.883 25.138H238.517V27H231.475V17.76H233.883V25.138ZM250.537 27H248.059L247.415 24.914H244.251L243.593 27H241.171L244.419 17.76H247.303L250.537 27ZM244.699 23.276H246.967L245.833 19.538L244.699 23.276ZM253.852 27V17.76H258.346C259.484 17.7693 260.324 17.9887 260.866 18.418C261.407 18.838 261.678 19.4493 261.678 20.252C261.678 20.7747 261.524 21.2273 261.216 21.61C260.908 21.9833 260.436 22.2213 259.802 22.324V22.338C260.511 22.4313 261.038 22.6787 261.384 23.08C261.738 23.472 261.916 23.948 261.916 24.508C261.916 25.3013 261.636 25.9173 261.076 26.356C260.516 26.7853 259.676 27 258.556 27H253.852ZM256.176 25.306H258.15C258.588 25.306 258.915 25.2173 259.13 25.04C259.344 24.8627 259.452 24.606 259.452 24.27C259.452 23.9433 259.344 23.696 259.13 23.528C258.915 23.3507 258.588 23.262 258.15 23.262H256.176V25.306ZM256.176 21.54H257.926C258.784 21.54 259.214 21.204 259.214 20.532C259.214 19.86 258.784 19.524 257.926 19.524H256.176V21.54ZM270.072 17.76C271.173 17.76 272.027 18.0213 272.634 18.544C273.25 19.0573 273.558 19.7433 273.558 20.602C273.558 21.5447 273.255 22.2633 272.648 22.758C272.041 23.2527 271.187 23.5 270.086 23.5L269.862 23.626H268.028V27H265.662V17.76H270.072ZM269.736 21.918C270.203 21.918 270.553 21.8247 270.786 21.638C271.019 21.4513 271.136 21.1527 271.136 20.742C271.136 20.3407 271.019 20.0467 270.786 19.86C270.553 19.6733 270.203 19.58 269.736 19.58H268.028V21.918H269.736ZM271.15 22.422L274.104 27H271.444L269.078 22.954L271.15 22.422ZM285.954 27H283.476L282.832 24.914H279.668L279.01 27H276.588L279.836 17.76H282.72L285.954 27ZM280.116 23.276H282.384L281.25 19.538L280.116 23.276Z" fill="#58220F"/>
</g>
<defs>
<filter id="filter0_d_573_1512" x="0" y="0" width="311" height="52" filterUnits="userSpaceOnUse" color-interpolation-filters="sRGB">
<feFlood flood-opacity="0" result="BackgroundImageFix"/>
<feColorMatrix in="SourceAlpha" type="matrix" values="0 0 0 0 0 0 0 0 0 0 0 0 0 0 0 0 0 0 127 0" result="hardAlpha"/>
<feOffset dy="4"/>
<feGaussianBlur stdDeviation="2"/>
<feComposite in2="hardAlpha" operator="out"/>
<feColorMatrix type="matrix" values="0 0 0 0 0 0 0 0 0 0 0 0 0 0 0 0 0 0 0.25 0"/>
<feBlend mode="normal" in2="BackgroundImageFix" result="effect1_dropShadow_573_1512"/>
<feBlend mode="normal" in="SourceGraphic" in2="effect1_dropShadow_573_1512" result="shape"/>
</filter>
<clipPath id="paint0_diamond_573_1512_clip_path"><path d="M4 18C4 8.05888 12.0589 0 22 0H289C298.941 0 307 8.05888 307 18V26C307 35.9411 298.941 44 289 44H22C12.0589 44 4 35.9411 4 26V18Z"/></clipPath><linearGradient id="paint0_diamond_573_1512" x1="0" y1="0" x2="500" y2="500" gradientUnits="userSpaceOnUse">
<stop offset="0.0817308" stop-color="#FFEFD1"/>
<stop offset="0.283654" stop-color="#E9B555"/>
<stop offset="0.480769" stop-color="#D29E3E"/>
<stop offset="1" stop-color="#DAA23B"/>
</linearGradient>
<linearGradient id="paint1_linear_573_1512" x1="4" y1="22" x2="307" y2="22" gradientUnits="userSpaceOnUse">
<stop stop-color="#CA8608"/>
<stop offset="1" stop-color="#DDA949"/>
</linearGradient>
</defs>
</svg>
