<svg width="310" height="393" viewBox="0 0 310 393" fill="none" xmlns="http://www.w3.org/2000/svg">
<path d="M240 0C278.66 3.86556e-06 310 31.3401 310 70V323C310 329.247 301.941 331.03 297.244 326.911C286.786 317.737 273.061 312.203 258.056 312.276C225.46 312.435 199.164 338.988 199.322 371.584L199.336 374.229C199.382 383.605 192.74 393 183.364 393H70C31.3401 393 7.16833e-07 361.66 0 323V135.044C0 121.915 13.16 112.611 26.2891 112.547C70.7365 112.331 106.594 76.1241 106.378 31.6768C106.303 16.2897 116.936 0 132.324 0H240Z" fill="#E6F5E6"/>
</svg>
