<svg width="23" height="30" viewBox="0 0 23 30" fill="none" xmlns="http://www.w3.org/2000/svg">
<path d="M3.75562 27.365L4.62917 23.7285L13.693 25.1817L7.06208 29.1554C6.38301 29.5847 5.62345 29.5528 4.78341 29.0599C3.94337 28.567 3.60077 28.002 3.75562 27.365ZM4.02624 18.4265L19.3271 17.7358C19.7371 17.7237 20.0354 17.84 20.2218 18.0849C20.4082 18.3297 20.461 18.6471 20.3802 19.0369L19.3907 22.7258C19.2763 23.0732 19.0653 23.3224 18.7577 23.4733C18.4501 23.6242 18.0998 23.6691 17.7066 23.6078L4.47374 21.5173L4.02624 18.4265ZM2.53794 8.1472L14.6344 2.38934C14.9941 2.21908 15.3495 2.16171 15.7007 2.21723C16.0519 2.27274 16.3182 2.45283 16.4996 2.75749L18.4947 6.01416C18.703 6.31493 18.7541 6.62071 18.6481 6.93152C18.5421 7.24233 18.2774 7.45203 17.8539 7.56062L2.98041 11.2032L2.53794 8.1472ZM0.140454 2.396C-0.161809 1.8252 0.0215846 1.24318 0.690634 0.649932C1.35969 0.0566872 2.08067 -0.130431 2.8536 0.0885769L10.3443 2.05319L2.05984 5.98274L0.140454 2.396ZM3.28209 13.2869L20.384 9.10888C20.8345 8.99639 21.2335 9.05089 21.5813 9.27236C21.9291 9.49383 22.1315 9.80136 22.1884 10.1949L22.7315 13.9455C22.7885 14.3391 22.6816 14.6914 22.4109 15.0024C22.1403 15.3134 21.773 15.4788 21.3092 15.4987L3.72456 16.3429L3.28209 13.2869Z" fill="#681970"/>
</svg>
