<svg width="21" height="24" viewBox="0 0 21 24" fill="none" xmlns="http://www.w3.org/2000/svg">
<path d="M5.125 20H8.04167" stroke="white" stroke-width="1.5" stroke-linecap="round" stroke-linejoin="round"/>
<path d="M12.4167 13.5565V20.5833C12.4167 21.8725 11.3725 22.9167 10.0833 22.9167H3.08333C1.79417 22.9167 0.75 21.8725 0.75 20.5833V6.58333C0.75 5.29417 1.79417 4.25 3.08333 4.25H7.28333" stroke="white" stroke-width="1.5" stroke-linecap="round" stroke-linejoin="round"/>
<path d="M17.536 2.6294C20.0418 5.13526 20.0418 9.19807 17.536 11.7039C15.0301 14.2098 10.9673 14.2098 8.46143 11.7039C5.95557 9.19807 5.95557 5.13526 8.46143 2.6294C10.9673 0.123535 15.0301 0.123535 17.536 2.6294" stroke="white" stroke-width="1.5" stroke-linecap="round" stroke-linejoin="round"/>
<path d="M12.9993 10.5675C12.9643 10.5675 12.9352 10.5967 12.9352 10.6317C12.9352 10.6667 12.9643 10.6958 12.9993 10.6958C13.0343 10.6958 13.0635 10.6667 13.0635 10.6317C13.0635 10.5967 13.0343 10.5675 12.9993 10.5675V10.5675" stroke="white" stroke-width="1.5" stroke-linecap="round" stroke-linejoin="round"/>
<path d="M12.9993 7.96925C14.1065 7.96925 15.0048 7.07092 15.0048 5.96375C15.0048 4.85659 14.1076 3.95825 12.9993 3.95825C11.919 3.95825 11.0451 4.81342 11.002 5.88325" stroke="white" stroke-width="1.5" stroke-linecap="round" stroke-linejoin="round"/>
</svg>
