<svg width="18" height="24" viewBox="0 0 18 24" fill="none" xmlns="http://www.w3.org/2000/svg">
<mask id="path-1-outside-1_1617_1102" maskUnits="userSpaceOnUse" x="-0.267578" y="-0.49939" width="18" height="25" fill="black">
<rect fill="white" x="-0.267578" y="-0.49939" width="18" height="25"/>
<path d="M11.1346 19.235C11.0254 19.155 10.7174 19.3738 10.4982 19.364C10.4628 19.318 10.3984 19.2297 10.3615 19.2207L10.0332 19.1445C9.78805 19.373 9.53421 19.5337 9.23047 19.4235C8.97591 19.3315 8.72279 19.5736 8.45376 19.1694C8.58755 19.011 8.56947 18.747 8.37204 18.6648C8.29466 18.6324 8.06396 18.6769 8.07481 18.5374C8.10736 18.1173 7.84918 18.0479 7.68357 17.9445C7.53893 17.8548 7.40803 17.7515 7.23012 17.6972L7.0703 17.3208C6.98785 17.1255 6.86853 17.0139 6.69858 16.897C6.3189 16.6368 6.55828 16.8834 6.16703 16.584C5.94791 16.6699 5.75988 16.5621 5.56968 16.4806C4.93761 16.2099 5.48434 16.2446 4.79008 16.0123L4.64978 16.2046L4.11606 16.2069C4.04808 16.2069 3.92297 16.099 3.85644 16.0839L3.44422 15.9882C3.43265 15.8841 3.42903 15.7807 3.38853 15.7423L3.1817 15.5462C2.75646 15.5801 2.56843 15.2196 2.4896 15.1631C2.35075 15.0627 2.15477 15.0363 2.02242 14.8931L1.73242 14.5801C1.75412 14.5227 1.82499 14.4224 1.87055 14.3915C1.95878 14.3319 2.20756 14.4654 2.24083 14.3802C2.29073 14.2527 2.04918 14.0544 2.08317 13.8907C2.12078 13.7097 2.25095 13.5174 2.39703 13.4254C2.54312 13.3334 2.86639 13.4593 3.15132 13.2655C3.37913 13.1101 3.26197 12.6659 3.75085 12.2066C4.03217 11.9426 3.51437 11.837 3.40878 11.4705C3.65033 11.2797 3.65756 11.0428 3.62791 10.7804L3.5621 10.1966C3.53968 9.99828 3.369 9.85875 3.43626 9.83085L3.53172 9.79163C3.63369 9.74939 3.74217 9.64305 3.68432 9.50956L3.48833 9.05477C3.58813 8.92882 3.65756 8.66033 3.52232 8.55474C3.36683 8.43331 3.22798 8.30812 3.19688 8.08563C3.18676 8.01247 3.05369 7.90462 3.0197 7.83221C2.96112 7.70852 3.09202 7.57956 3.15711 7.49659L3.1911 7.32011L3.38853 7.46039L3.64454 7.08555C3.66913 7.05011 3.77255 7.02069 3.78339 6.97997C3.79424 6.93924 3.78122 6.83818 3.75953 6.79669L3.50858 6.30873C3.48905 6.27102 3.53895 6.15864 3.57367 6.15185C3.61489 6.14431 3.66479 6.19635 3.70167 6.25819C3.9801 6.72957 4.22526 6.54856 4.13053 6.96564C4.13269 6.97695 4.26215 6.97695 4.30337 6.96488C4.31566 6.79142 4.31132 6.56968 4.28601 6.40526L4.13703 6.18428C4.43933 6.02892 4.7221 5.87204 4.90362 5.58168C5.01137 5.40896 5.10322 5.17214 5.35272 5.18497C5.44601 5.18949 5.56751 5.17818 5.61234 5.09974C5.73818 4.87876 5.47783 4.88932 5.62102 4.63892C5.70274 4.49562 5.71504 4.30858 5.58776 4.21355C5.67237 4.09062 5.72806 3.92168 5.76638 3.75575L6.54815 3.13203C6.6899 3.2082 7.12454 3.32812 7.19107 3.19387C7.21132 3.15315 7.21783 3.06792 7.22434 2.98496C7.23302 2.87862 7.40369 2.80018 7.52229 2.84845C8.44581 3.22857 8.45738 2.55808 9.27169 2.3009C9.69476 2.1674 9.59062 1.62212 9.72947 1.71111L9.88713 1.81218L9.94788 1.65002C9.99633 1.60326 10.1265 1.52633 10.201 1.50899C10.4317 1.45544 10.807 1.66586 10.7839 1.93436C10.7629 2.18023 10.4317 2.28506 10.2451 2.33635C10.0426 2.39216 9.85748 2.43137 9.75406 2.61389C9.67162 2.75945 9.60436 2.98722 9.46262 3.06038C9.34401 3.12147 9.24638 3.15164 9.18057 3.25949L8.95349 3.6298C8.71556 4.01897 8.7604 4.2128 8.64686 4.71887C8.58755 4.98208 8.34601 5.16536 8.26573 5.44894C8.37711 5.57187 8.57815 5.29282 8.63095 5.39388L8.70616 5.53718C8.72352 5.57036 8.85369 5.54472 8.87828 5.57489C9.09451 5.83584 8.83706 5.86752 9.21384 6.33965C9.54578 6.75521 9.28471 6.85401 9.27893 7.04709L9.26591 7.48226C9.26302 7.57428 9.35992 7.64743 9.46189 7.65196C9.68391 7.66176 9.55591 7.8126 9.74683 8.02906C9.8112 8.10146 9.92835 8.04565 10.013 8.05018L10.6197 8.08336C10.7058 8.08789 10.8902 8.14068 10.9647 8.10146C11.5483 7.79224 11.5121 8.29228 11.975 8.14521L12.6721 9.05477C12.8023 9.22447 13.0424 9.20109 13.195 9.04799L13.6477 9.14603L14.4338 9.02536C14.6226 8.99595 14.8222 8.85491 15.0138 9.07514C15.0927 9.16564 15.0659 9.34967 14.9625 9.44922C14.752 9.6521 15.0117 9.87761 14.734 10.0375C14.6045 10.1122 14.5886 10.2049 14.6045 10.3445C14.6313 10.5835 14.5966 10.8475 14.6342 11.0851L14.7007 11.5112C14.7202 11.6349 14.7868 11.8325 14.8417 11.9313C14.982 12.0339 15.0471 12.1214 15.1144 12.2752L15.1975 12.466C15.2395 12.5626 14.726 12.8982 14.5994 13.0784C14.7795 13.141 14.8605 13.1938 14.9777 13.313C15.0804 13.4171 15.2604 13.5272 15.3082 13.6682L15.4217 14.0023L15.5779 14.4164L15.7059 14.789C15.737 14.8787 15.7508 14.9934 15.69 15.0431C15.6228 15.0982 15.4586 15.0944 15.4543 15.025L15.4232 14.5469C15.4 14.1924 15.2525 14.4737 15.1136 13.8704C14.9892 13.9586 14.8728 14.0408 14.7412 14.1109C14.5004 14.2392 14.5582 14.3282 14.4541 14.3297C14.3601 14.3312 14.2234 14.1343 14.1554 14.2294C14.1323 14.2618 14.1438 14.3153 14.1554 14.436L12.7474 14.4277C12.615 14.427 12.3525 14.3877 12.2975 14.5733C12.2455 14.7482 12.2766 14.9662 12.2838 15.1766L12.6743 15.1879C12.8023 15.1917 12.9376 15.2264 13.0099 15.3199C13.0901 15.4248 13.0894 15.602 13.0468 15.7506C12.9773 15.786 12.8095 15.7008 12.7285 15.691L12.069 15.863L12.0625 16.587C12.0582 17.0727 12.6512 16.8555 12.5832 17.4294C12.7582 17.7341 12.85 17.7718 12.7618 18.2191L12.6924 18.5698L12.5723 19.2357L12.2447 21.1786C12.2238 21.3045 12.21 21.4003 12.1319 21.5006L11.758 21.1114L11.4724 21.1024C11.4405 21.1016 11.3747 21.0828 11.3494 21.07C11.2272 21.0059 12.0357 20.0088 11.988 19.775C11.9793 19.7313 11.9157 19.6875 11.8622 19.6506C11.4622 19.3738 11.5707 19.5608 11.1281 19.2373L11.1346 19.235Z"/>
</mask>
<path d="M11.1346 19.235C11.0254 19.155 10.7174 19.3738 10.4982 19.364C10.4628 19.318 10.3984 19.2297 10.3615 19.2207L10.0332 19.1445C9.78805 19.373 9.53421 19.5337 9.23047 19.4235C8.97591 19.3315 8.72279 19.5736 8.45376 19.1694C8.58755 19.011 8.56947 18.747 8.37204 18.6648C8.29466 18.6324 8.06396 18.6769 8.07481 18.5374C8.10736 18.1173 7.84918 18.0479 7.68357 17.9445C7.53893 17.8548 7.40803 17.7515 7.23012 17.6972L7.0703 17.3208C6.98785 17.1255 6.86853 17.0139 6.69858 16.897C6.3189 16.6368 6.55828 16.8834 6.16703 16.584C5.94791 16.6699 5.75988 16.5621 5.56968 16.4806C4.93761 16.2099 5.48434 16.2446 4.79008 16.0123L4.64978 16.2046L4.11606 16.2069C4.04808 16.2069 3.92297 16.099 3.85644 16.0839L3.44422 15.9882C3.43265 15.8841 3.42903 15.7807 3.38853 15.7423L3.1817 15.5462C2.75646 15.5801 2.56843 15.2196 2.4896 15.1631C2.35075 15.0627 2.15477 15.0363 2.02242 14.8931L1.73242 14.5801C1.75412 14.5227 1.82499 14.4224 1.87055 14.3915C1.95878 14.3319 2.20756 14.4654 2.24083 14.3802C2.29073 14.2527 2.04918 14.0544 2.08317 13.8907C2.12078 13.7097 2.25095 13.5174 2.39703 13.4254C2.54312 13.3334 2.86639 13.4593 3.15132 13.2655C3.37913 13.1101 3.26197 12.6659 3.75085 12.2066C4.03217 11.9426 3.51437 11.837 3.40878 11.4705C3.65033 11.2797 3.65756 11.0428 3.62791 10.7804L3.5621 10.1966C3.53968 9.99828 3.369 9.85875 3.43626 9.83085L3.53172 9.79163C3.63369 9.74939 3.74217 9.64305 3.68432 9.50956L3.48833 9.05477C3.58813 8.92882 3.65756 8.66033 3.52232 8.55474C3.36683 8.43331 3.22798 8.30812 3.19688 8.08563C3.18676 8.01247 3.05369 7.90462 3.0197 7.83221C2.96112 7.70852 3.09202 7.57956 3.15711 7.49659L3.1911 7.32011L3.38853 7.46039L3.64454 7.08555C3.66913 7.05011 3.77255 7.02069 3.78339 6.97997C3.79424 6.93924 3.78122 6.83818 3.75953 6.79669L3.50858 6.30873C3.48905 6.27102 3.53895 6.15864 3.57367 6.15185C3.61489 6.14431 3.66479 6.19635 3.70167 6.25819C3.9801 6.72957 4.22526 6.54856 4.13053 6.96564C4.13269 6.97695 4.26215 6.97695 4.30337 6.96488C4.31566 6.79142 4.31132 6.56968 4.28601 6.40526L4.13703 6.18428C4.43933 6.02892 4.7221 5.87204 4.90362 5.58168C5.01137 5.40896 5.10322 5.17214 5.35272 5.18497C5.44601 5.18949 5.56751 5.17818 5.61234 5.09974C5.73818 4.87876 5.47783 4.88932 5.62102 4.63892C5.70274 4.49562 5.71504 4.30858 5.58776 4.21355C5.67237 4.09062 5.72806 3.92168 5.76638 3.75575L6.54815 3.13203C6.6899 3.2082 7.12454 3.32812 7.19107 3.19387C7.21132 3.15315 7.21783 3.06792 7.22434 2.98496C7.23302 2.87862 7.40369 2.80018 7.52229 2.84845C8.44581 3.22857 8.45738 2.55808 9.27169 2.3009C9.69476 2.1674 9.59062 1.62212 9.72947 1.71111L9.88713 1.81218L9.94788 1.65002C9.99633 1.60326 10.1265 1.52633 10.201 1.50899C10.4317 1.45544 10.807 1.66586 10.7839 1.93436C10.7629 2.18023 10.4317 2.28506 10.2451 2.33635C10.0426 2.39216 9.85748 2.43137 9.75406 2.61389C9.67162 2.75945 9.60436 2.98722 9.46262 3.06038C9.34401 3.12147 9.24638 3.15164 9.18057 3.25949L8.95349 3.6298C8.71556 4.01897 8.7604 4.2128 8.64686 4.71887C8.58755 4.98208 8.34601 5.16536 8.26573 5.44894C8.37711 5.57187 8.57815 5.29282 8.63095 5.39388L8.70616 5.53718C8.72352 5.57036 8.85369 5.54472 8.87828 5.57489C9.09451 5.83584 8.83706 5.86752 9.21384 6.33965C9.54578 6.75521 9.28471 6.85401 9.27893 7.04709L9.26591 7.48226C9.26302 7.57428 9.35992 7.64743 9.46189 7.65196C9.68391 7.66176 9.55591 7.8126 9.74683 8.02906C9.8112 8.10146 9.92835 8.04565 10.013 8.05018L10.6197 8.08336C10.7058 8.08789 10.8902 8.14068 10.9647 8.10146C11.5483 7.79224 11.5121 8.29228 11.975 8.14521L12.6721 9.05477C12.8023 9.22447 13.0424 9.20109 13.195 9.04799L13.6477 9.14603L14.4338 9.02536C14.6226 8.99595 14.8222 8.85491 15.0138 9.07514C15.0927 9.16564 15.0659 9.34967 14.9625 9.44922C14.752 9.6521 15.0117 9.87761 14.734 10.0375C14.6045 10.1122 14.5886 10.2049 14.6045 10.3445C14.6313 10.5835 14.5966 10.8475 14.6342 11.0851L14.7007 11.5112C14.7202 11.6349 14.7868 11.8325 14.8417 11.9313C14.982 12.0339 15.0471 12.1214 15.1144 12.2752L15.1975 12.466C15.2395 12.5626 14.726 12.8982 14.5994 13.0784C14.7795 13.141 14.8605 13.1938 14.9777 13.313C15.0804 13.4171 15.2604 13.5272 15.3082 13.6682L15.4217 14.0023L15.5779 14.4164L15.7059 14.789C15.737 14.8787 15.7508 14.9934 15.69 15.0431C15.6228 15.0982 15.4586 15.0944 15.4543 15.025L15.4232 14.5469C15.4 14.1924 15.2525 14.4737 15.1136 13.8704C14.9892 13.9586 14.8728 14.0408 14.7412 14.1109C14.5004 14.2392 14.5582 14.3282 14.4541 14.3297C14.3601 14.3312 14.2234 14.1343 14.1554 14.2294C14.1323 14.2618 14.1438 14.3153 14.1554 14.436L12.7474 14.4277C12.615 14.427 12.3525 14.3877 12.2975 14.5733C12.2455 14.7482 12.2766 14.9662 12.2838 15.1766L12.6743 15.1879C12.8023 15.1917 12.9376 15.2264 13.0099 15.3199C13.0901 15.4248 13.0894 15.602 13.0468 15.7506C12.9773 15.786 12.8095 15.7008 12.7285 15.691L12.069 15.863L12.0625 16.587C12.0582 17.0727 12.6512 16.8555 12.5832 17.4294C12.7582 17.7341 12.85 17.7718 12.7618 18.2191L12.6924 18.5698L12.5723 19.2357L12.2447 21.1786C12.2238 21.3045 12.21 21.4003 12.1319 21.5006L11.758 21.1114L11.4724 21.1024C11.4405 21.1016 11.3747 21.0828 11.3494 21.07C11.2272 21.0059 12.0357 20.0088 11.988 19.775C11.9793 19.7313 11.9157 19.6875 11.8622 19.6506C11.4622 19.3738 11.5707 19.5608 11.1281 19.2373L11.1346 19.235Z" stroke="white" stroke-width="3" mask="url(#path-1-outside-1_1617_1102)"/>
</svg>
