<svg width="30" height="34" viewBox="0 0 30 34" fill="none" xmlns="http://www.w3.org/2000/svg">
<g filter="url(#filter0_d_659_3326)">
<path d="M15 0C21.0751 0 26 4.92487 26 11C26 15.9793 22.6909 20.1835 18.1523 21.5391L15.8662 25.5C15.4813 26.1667 14.5187 26.1667 14.1338 25.5L11.8467 21.5391C7.30861 20.1832 4 15.979 4 11C4 4.92487 8.92487 0 15 0Z" fill="white"/>
<rect x="5" y="1" width="20" height="20" rx="10" fill="#009E00"/>
<path d="M21.9964 11.2303C21.9675 10.7868 21.7585 10.3627 21.4442 10.033C20.9704 9.5364 20.3512 9.27351 19.7239 9.02655C19.388 8.89434 19.0521 8.76213 18.7159 8.63077C18.3843 8.50113 18.053 8.42766 17.695 8.41053C17.5362 8.403 17.3299 8.45146 17.1805 8.40539C17.0139 8.35402 16.8492 8.27524 16.6812 8.22112C16.418 8.13634 16.1508 8.06304 15.8789 8.01201C15.3529 7.91336 14.8302 7.91114 14.3131 8.04746C14.2982 8.0514 14.2641 8.05619 14.2491 8.05842L14.1332 8.04386C14.104 8.0401 14.0697 8.03239 14.0413 8.02571L13.9719 8.00944C13.5323 7.90686 13.0528 7.87363 12.6015 7.8947C12.3689 7.90549 12.1369 7.93648 11.9112 7.99386C11.7988 8.02246 11.6879 8.05756 11.5799 8.10004C11.4774 8.14028 11.3833 8.19406 11.2778 8.21855L11.0546 8.2701C10.8661 8.31377 10.5172 8.41721 10.3406 8.48794L10.1866 8.54959L10.0733 8.59823C9.7109 8.75391 9.23761 9.0358 8.94416 9.29612L8.78896 9.43364C8.72737 9.48827 8.67364 9.54359 8.617 9.60558C8.31636 9.93372 8.10487 10.28 8.02068 10.7244C7.99536 10.858 7.99621 11.0428 8.00768 11.1779C8.01025 11.2074 8.03454 11.3259 8.04327 11.362C8.19658 11.9928 8.71299 12.4005 9.25216 12.7016C9.89502 13.0608 10.5803 13.3372 11.2906 13.5302C11.6446 13.6264 12.0029 13.7061 12.3636 13.7727C12.886 13.8689 13.413 13.9378 13.9412 13.9926C15.1513 14.1185 16.3924 14.164 17.6032 14.0267C17.8975 13.9933 18.1907 13.9501 18.4823 13.8975C19.4111 13.7299 20.3512 13.4939 21.1138 12.9087C21.4795 12.6282 21.7854 12.2545 21.9254 11.815C21.9873 11.6205 22.0089 11.4235 21.9964 11.2302V11.2303ZM17.5058 8.77189C17.7091 8.73849 17.9223 8.75733 18.1247 8.80066C18.3182 8.84194 18.5056 8.90701 18.6899 8.97826C18.7361 8.99607 18.7821 9.01439 18.828 9.03289C18.8509 9.04214 18.9416 9.06971 18.8873 9.10294C18.8791 9.10807 18.8695 9.11064 18.8601 9.11321C18.7297 9.14918 18.6053 9.18942 18.4839 9.25022C18.3653 9.30948 18.2529 9.38021 18.1435 9.4547C17.8997 9.62117 17.6767 9.81572 17.4557 10.0108C17.0431 10.3745 16.5986 10.76 16.0515 10.895C16.0206 10.9027 15.9915 10.9051 15.9579 10.9036C15.9571 10.8602 15.9547 10.8248 15.9603 10.7863L15.9766 10.6734C16.0072 10.4621 16.0945 10.2564 16.1819 10.0611C16.275 9.85323 16.3866 9.65285 16.5233 9.47029C16.6982 9.23703 16.9153 9.02621 17.172 8.88492C17.2774 8.82686 17.3899 8.7909 17.5058 8.77189ZM14.607 8.33792C14.6308 8.33038 14.6548 8.3237 14.6789 8.31754C14.9039 8.26034 15.1399 8.26034 15.3709 8.28414C15.627 8.31069 15.8832 8.35761 16.1349 8.41036C16.1419 8.4119 16.1578 8.40779 16.1583 8.4131L16.1607 8.43622C16.16 8.42971 15.9814 8.49205 15.9561 8.50318C15.8755 8.53898 15.7985 8.57614 15.723 8.61998C15.4294 8.79022 15.2653 8.92774 15.0196 9.15431C14.5897 9.55095 14.2116 9.994 13.6991 10.292C13.5788 10.3619 13.4514 10.4249 13.315 10.4561C13.1755 10.4877 13.2091 10.2903 13.2265 10.2036C13.348 9.60199 13.6639 8.97466 14.1478 8.58453C14.2838 8.47493 14.4402 8.39049 14.6069 8.33809L14.607 8.33792ZM11.0724 8.95428C11.2218 8.77891 11.3989 8.627 11.5994 8.50746C12.0746 8.22437 12.6613 8.13515 13.199 8.26393C13.1598 8.25451 13.0364 8.33894 12.9996 8.35795C12.9355 8.39135 12.88 8.43194 12.8194 8.47064C12.6923 8.55199 12.5724 8.6443 12.4576 8.74226C12.2238 8.94178 12.0113 9.16442 11.7902 9.37764C11.6087 9.55284 11.4198 9.7217 11.2115 9.8647C11.1085 9.93543 11.0011 9.99948 10.8883 10.0536C10.8147 10.0889 10.6267 10.1995 10.5538 10.1509C10.5481 10.1471 10.5608 10.1315 10.5632 10.1247C10.5712 10.0217 10.5622 10.0334 10.5861 9.92824C10.6679 9.56893 10.8354 9.23207 11.0722 8.95411L11.0724 8.95428Z" fill="white"/>
</g>
<defs>
<filter id="filter0_d_659_3326" x="0" y="0" width="30" height="34" filterUnits="userSpaceOnUse" color-interpolation-filters="sRGB">
<feFlood flood-opacity="0" result="BackgroundImageFix"/>
<feColorMatrix in="SourceAlpha" type="matrix" values="0 0 0 0 0 0 0 0 0 0 0 0 0 0 0 0 0 0 127 0" result="hardAlpha"/>
<feOffset dy="4"/>
<feGaussianBlur stdDeviation="2"/>
<feComposite in2="hardAlpha" operator="out"/>
<feColorMatrix type="matrix" values="0 0 0 0 0 0 0 0 0 0 0 0 0 0 0 0 0 0 0.25 0"/>
<feBlend mode="normal" in2="BackgroundImageFix" result="effect1_dropShadow_659_3326"/>
<feBlend mode="normal" in="SourceGraphic" in2="effect1_dropShadow_659_3326" result="shape"/>
</filter>
</defs>
</svg>
