<svg width="29" height="29" viewBox="0 0 29 29" fill="none" xmlns="http://www.w3.org/2000/svg">
<path d="M21.0092 8.17008V5.83577C21.0092 4.54607 19.9646 3.50146 18.6749 3.50146H5.83626C4.54655 3.50146 3.50195 4.54607 3.50195 5.83577V18.6745C3.50195 19.9642 4.54655 21.0088 5.83626 21.0088H8.17056" stroke="white" stroke-width="1.5" stroke-linecap="round" stroke-linejoin="round"/>
<path fill-rule="evenodd" clip-rule="evenodd" d="M22.694 24.5102H9.98601C8.98226 24.5102 8.16992 23.6978 8.16992 22.6941V9.98613C8.16992 8.98238 8.98226 8.17004 9.98601 8.17004H22.6951C23.6977 8.17004 24.5101 8.98238 24.5101 9.98613V22.6953C24.5101 23.6978 23.6977 24.5102 22.694 24.5102Z" stroke="white" stroke-width="1.5" stroke-linecap="round" stroke-linejoin="round"/>
<path d="M20.8787 12.7092H15.4316" stroke="white" stroke-width="1.5" stroke-linecap="round" stroke-linejoin="round"/>
<path d="M15.4316 16.3402H20.8787" stroke="white" stroke-width="1.5" stroke-linecap="round" stroke-linejoin="round"/>
<path d="M15.4316 19.9711H20.8787" stroke="white" stroke-width="1.5" stroke-linecap="round" stroke-linejoin="round"/>
<path d="M11.8012 16.1137C11.6763 16.1137 11.5747 16.2153 11.5759 16.3402C11.5759 16.4651 11.6774 16.5666 11.8023 16.5666C11.9272 16.5666 12.0288 16.4651 12.0288 16.3402C12.0288 16.2153 11.9272 16.1137 11.8012 16.1137" stroke="white" stroke-width="1.5" stroke-linecap="round" stroke-linejoin="round"/>
<path d="M11.8012 19.7447C11.6763 19.7447 11.5747 19.8463 11.5759 19.9711C11.5759 20.096 11.6774 20.1976 11.8023 20.1976C11.9272 20.1976 12.0288 20.096 12.0288 19.9711C12.0288 19.8463 11.9272 19.7447 11.8012 19.7447" stroke="white" stroke-width="1.5" stroke-linecap="round" stroke-linejoin="round"/>
<path d="M11.8012 12.4815C11.6763 12.4815 11.5747 12.5831 11.5759 12.708C11.5759 12.8329 11.6774 12.9344 11.8023 12.9344C11.9272 12.9344 12.0288 12.8329 12.0288 12.708C12.0299 12.5842 11.9272 12.4815 11.8012 12.4815" stroke="white" stroke-width="1.5" stroke-linecap="round" stroke-linejoin="round"/>
</svg>
