<svg width="50" height="49" viewBox="0 0 50 49" fill="none" xmlns="http://www.w3.org/2000/svg">
<path fill-rule="evenodd" clip-rule="evenodd" d="M25.1223 0C28.0856 0 30.4946 2.40214 30.4946 5.35177C30.4946 8.3014 28.0788 10.7035 25.1223 10.7035C22.159 10.7035 19.75 8.3014 19.75 5.35177C19.75 2.40214 22.1658 0 25.1223 0Z" fill="#009E00"/>
<path fill-rule="evenodd" clip-rule="evenodd" d="M5.54947 17.2665V17.287C5.52894 17.376 5.5221 17.4444 5.5221 17.4855C5.5221 17.7592 5.6795 17.9645 5.99431 18.1014C6.31596 18.2383 6.80871 18.2999 7.47255 18.2999C7.97898 18.2999 8.37592 18.2451 8.66335 18.1356C8.95079 18.0261 9.0945 17.8756 9.0945 17.684C9.0945 17.3897 8.52648 17.157 7.38358 16.9722C7.25355 16.9517 7.1509 16.9311 7.0893 16.9243C7.01402 16.9106 6.91137 16.8901 6.76765 16.8696C4.96091 16.5753 3.79749 16.2605 3.28421 15.9183C3.03099 15.7472 2.84621 15.5556 2.71618 15.3229C2.593 15.097 2.52456 14.837 2.52456 14.5564C2.52456 13.8583 2.94203 13.3245 3.77011 12.955C4.5982 12.5922 5.81638 12.4075 7.4178 12.4075C8.99869 12.4075 10.169 12.5786 10.9286 12.9207C11.6883 13.2629 12.0715 13.7899 12.0715 14.5016V14.5838H9.08082V14.5495C9.08082 14.3032 8.93026 14.1184 8.62913 13.9952C8.32801 13.872 7.88317 13.8036 7.29461 13.8036C6.84293 13.8036 6.48706 13.8446 6.24753 13.9405C6.00116 14.0294 5.87797 14.1595 5.87797 14.3237C5.87797 14.618 6.52812 14.8712 7.83527 15.0765C8.08848 15.1107 8.28695 15.1449 8.42382 15.1655C9.35456 15.316 10.0184 15.4529 10.4085 15.5624C10.8054 15.6719 11.1408 15.8019 11.4282 15.9525C11.743 16.1236 11.9962 16.3426 12.1673 16.6095C12.3384 16.8764 12.4274 17.157 12.4274 17.4718C12.4274 18.1904 11.9757 18.7447 11.0723 19.1348C10.169 19.5249 8.86182 19.7165 7.16458 19.7165C5.48788 19.7165 4.2697 19.5317 3.5169 19.1553C2.76409 18.7789 2.39453 18.1835 2.39453 17.3555V17.2528H5.54263L5.54947 17.2665ZM13.7482 19.6139V12.5238H22.2823V14.0568H16.9579V15.186H21.8854V16.6985H16.9579V18.074H22.4876V19.6207H13.7551L13.7482 19.6139ZM23.8221 19.6139V12.5238H27.8736L32.2125 17.2802V12.5238H35.2921V19.6139H31.0833L26.8881 14.837V19.6139H23.8221ZM43.573 16.7806L42.04 14.2005L40.4181 16.7806H43.573ZM38.6866 19.6139H35.4701L40.4318 12.5238H43.9836L48.7126 19.6139H45.1471L44.4216 18.3341H39.4531L38.6798 19.6139H38.6866Z" fill="#009E00"/>
<path fill-rule="evenodd" clip-rule="evenodd" d="M9.48535 44.6205L6.62469 41.9583L15.3367 26.9912C15.8089 26.1768 15.2204 25.1571 14.2622 25.1571C9.34848 25.1571 0 25.1571 0 25.1571V21.4136H22.9606L9.48535 44.6205Z" fill="#009E00"/>
<path fill-rule="evenodd" clip-rule="evenodd" d="M40.5143 44.6205L43.375 41.9583L34.6629 26.9912C34.1907 26.1768 34.7793 25.1571 35.7374 25.1571C40.6512 25.1571 49.9996 25.1571 49.9996 25.1571V21.4136H27.0391L40.5143 44.6205Z" fill="#009E00"/>
<path fill-rule="evenodd" clip-rule="evenodd" d="M24.9723 25.3629C24.9928 25.3286 25.0065 25.3081 25.0065 25.3081L37.9411 46.4756L34.5056 48.2482L26.1699 34.4307C25.6772 33.6163 24.4864 33.6163 24.0005 34.4307C21.222 39.0639 15.7196 48.2482 15.7196 48.2482L12.3594 46.5988C12.3594 46.5988 24.2879 26.5263 24.9791 25.3629H24.9723Z" fill="#009E00"/>
</svg>
