<svg width="63" height="61" viewBox="0 0 63 61" fill="none" xmlns="http://www.w3.org/2000/svg">
<path fill-rule="evenodd" clip-rule="evenodd" d="M6.21017 21.7993V21.8253C6.18432 21.9355 6.17785 22.0197 6.17785 22.0716C6.17785 22.4216 6.37824 22.6809 6.76608 22.8494C7.16685 23.018 7.78093 23.1022 8.60833 23.1022C9.2418 23.1022 9.73307 23.0309 10.0951 22.8948C10.457 22.7587 10.638 22.5642 10.638 22.3179C10.638 21.9484 9.92699 21.6502 8.51137 21.4169C8.3433 21.391 8.22049 21.3715 8.14292 21.3585C8.05242 21.3391 7.91668 21.3197 7.74215 21.2937C5.49266 20.9242 4.04472 20.5223 3.40478 20.0945C3.09451 19.8806 2.85534 19.6343 2.69374 19.3491C2.5386 19.0639 2.46103 18.7398 2.46103 18.3768C2.46103 17.4952 2.97816 16.8211 4.0124 16.3608C5.04665 15.9006 6.55923 15.6672 8.55661 15.6672C10.554 15.6672 11.9826 15.8811 12.9328 16.3154C13.883 16.7498 14.3549 17.4174 14.3549 18.3119V18.4157H10.6251V18.3768C10.6251 18.0656 10.4376 17.8323 10.0627 17.6767C9.68782 17.5146 9.13191 17.4369 8.40148 17.4369C7.83911 17.4369 7.39955 17.4952 7.09574 17.6054C6.78547 17.7221 6.6368 17.8841 6.6368 18.0916C6.6368 18.4675 7.45127 18.7851 9.07374 19.0444C9.38401 19.0898 9.63611 19.1287 9.81064 19.1611C10.9677 19.3556 11.7951 19.5241 12.2864 19.6602C12.7776 19.7964 13.1978 19.9649 13.5598 20.1529C13.9541 20.3733 14.2644 20.6455 14.4777 20.9761C14.691 21.3067 14.8009 21.6697 14.8009 22.0651C14.8009 22.9726 14.2385 23.6727 13.1073 24.1653C11.9826 24.6579 10.3536 24.8978 8.23988 24.8978C6.12614 24.8978 4.63295 24.6644 3.69566 24.1912C2.75838 23.718 2.29297 22.9661 2.29297 21.9225V21.7864H6.21664L6.21017 21.7993ZM16.4233 24.7617V15.8098H27.0502V17.7415H20.4116V19.1676H26.5525V21.0733H20.4116V22.8105H27.3023V24.7617H16.4169H16.4233ZM28.9765 24.7617V15.8098H34.0314L39.4418 21.8188V15.8098H43.2749V24.7617H38.0326L32.8032 18.7333V24.7617H28.9765ZM53.5851 21.19L51.6717 17.936L49.6485 21.19H53.5786H53.5851ZM47.5024 24.7617H43.5012L49.6808 15.8098H54.1086L60.0038 24.7617H55.5566L54.6581 23.1476H48.4655L47.5024 24.7617Z" fill="white"/>
<path fill-rule="evenodd" clip-rule="evenodd" d="M11.8163 56.3298L8.24811 52.9656L19.1077 34.0702C19.7024 33.0395 18.959 31.7496 17.7696 31.7496H0V27.0241H28.6033L11.8163 56.3233V56.3298Z" fill="white"/>
<path fill-rule="evenodd" clip-rule="evenodd" d="M50.4746 56.3298L54.0427 52.9656L43.1832 34.0702C42.5885 33.0395 43.3318 31.7496 44.5212 31.7496H62.2908V27.0241H33.6875L50.4746 56.3233V56.3298Z" fill="white"/>
<path fill-rule="evenodd" clip-rule="evenodd" d="M30.9289 32.0217C30.9548 31.9763 30.9677 31.9568 30.9677 31.9568L47.089 58.6762L42.8098 60.9125L32.4221 43.4691C31.808 42.4384 30.3278 42.4384 29.7201 43.4691C26.2554 49.3225 19.4035 60.9125 19.4035 60.9125L15.2148 58.8317C15.2148 58.8317 30.0757 33.4931 30.9354 32.0282L30.9289 32.0217Z" fill="white"/>
<path d="M31.1431 13.3273C34.813 13.3273 37.7881 10.3438 37.7881 6.66363C37.7881 2.98341 34.813 0 31.1431 0C27.4731 0 24.498 2.98341 24.498 6.66363C24.498 10.3438 27.4731 13.3273 31.1431 13.3273Z" fill="white"/>
</svg>
