<svg width="110" height="110" viewBox="0 0 110 110" fill="none" xmlns="http://www.w3.org/2000/svg">
<g filter="url(#filter0_d_392_1459)">
<circle cx="54.8835" cy="53.8381" r="50.7019" fill="#712679"/>
</g>
<path fill-rule="evenodd" clip-rule="evenodd" d="M78.0585 38.5046V70.215C78.0585 72.7179 76.0313 74.7451 73.5284 74.7451H37.2879C34.785 74.7451 32.7578 72.7179 32.7578 70.215V38.5816C32.7578 36.0832 34.7805 34.056 37.2788 34.0515L73.5193 33.9745C76.0245 33.97 78.0585 35.9994 78.0585 38.5046Z" stroke="white" stroke-width="3.39755" stroke-linecap="round" stroke-linejoin="round"/>
<path d="M46.3474 40.7453C46.3406 40.7453 46.336 40.7499 46.336 40.7567C46.336 40.7635 46.3406 40.768 46.3474 40.768C46.3542 40.768 46.3587 40.7635 46.3587 40.7567C46.3587 40.7499 46.3542 40.7453 46.3474 40.7453" stroke="white" stroke-width="3.39755" stroke-linecap="round" stroke-linejoin="round"/>
<path d="M53.154 40.7575C53.1472 40.7575 53.1427 40.7621 53.1427 40.7689C53.1427 40.7757 53.1472 40.7802 53.154 40.7802C53.1608 40.7802 53.1653 40.7757 53.1653 40.7689C53.1653 40.7621 53.1608 40.7575 53.154 40.7575" stroke="white" stroke-width="3.39755" stroke-linecap="round" stroke-linejoin="round"/>
<path d="M39.5524 40.7719C39.5456 40.7719 39.5411 40.7764 39.5411 40.7832C39.5411 40.79 39.5456 40.7945 39.5524 40.7945C39.5592 40.7945 39.5638 40.79 39.5638 40.7832C39.5638 40.7764 39.5592 40.7719 39.5524 40.7719" stroke="white" stroke-width="3.39755" stroke-linecap="round" stroke-linejoin="round"/>
<path fill-rule="evenodd" clip-rule="evenodd" d="M53.0074 51.0901L61.8002 56.2906C62.9124 56.9475 62.9124 58.5579 61.8002 59.2148L53.0074 64.4153C51.8749 65.0857 50.4434 64.2681 50.4434 62.9521V52.5533C50.4434 51.2396 51.8749 50.4219 53.0074 51.0901V51.0901Z" stroke="white" stroke-width="3.39755" stroke-linecap="round" stroke-linejoin="round"/>
<defs>
<filter id="filter0_d_392_1459" x="4.14848e-05" y="-2.99215e-05" width="109.767" height="109.767" filterUnits="userSpaceOnUse" color-interpolation-filters="sRGB">
<feFlood flood-opacity="0" result="BackgroundImageFix"/>
<feColorMatrix in="SourceAlpha" type="matrix" values="0 0 0 0 0 0 0 0 0 0 0 0 0 0 0 0 0 0 127 0" result="hardAlpha"/>
<feOffset dy="1.0454"/>
<feGaussianBlur stdDeviation="2.0908"/>
<feComposite in2="hardAlpha" operator="out"/>
<feColorMatrix type="matrix" values="0 0 0 0 0.027451 0 0 0 0 0.560784 0 0 0 0 0 0 0 0 0.1 0"/>
<feBlend mode="normal" in2="BackgroundImageFix" result="effect1_dropShadow_392_1459"/>
<feBlend mode="normal" in="SourceGraphic" in2="effect1_dropShadow_392_1459" result="shape"/>
</filter>
</defs>
</svg>
