<svg width="23" height="24" viewBox="0 0 23 24" fill="none" xmlns="http://www.w3.org/2000/svg">
<path d="M8.73617 14.187C5.33025 14.655 2.875 15.96 2.875 17.5C2.875 19.433 6.73612 21 11.5 21C16.2639 21 20.125 19.433 20.125 17.5C20.125 15.96 17.6697 14.655 14.2638 14.187" stroke="#365B71" stroke-width="1.1875" stroke-linecap="round" stroke-linejoin="round"/>
<path fill-rule="evenodd" clip-rule="evenodd" d="M17.25 7.833C17.25 4.612 14.6759 2 11.5 2C8.32408 2 5.75 4.612 5.75 7.833C5.75 12.208 11.5 17 11.5 17C11.5 17 17.25 12.208 17.25 7.833Z" stroke="#365B71" stroke-width="1.1875" stroke-linecap="round" stroke-linejoin="round"/>
<path d="M12.8559 6.58579C13.6044 7.36684 13.6044 8.63317 12.8559 9.41422C12.1074 10.1953 10.8939 10.1953 10.1454 9.41422C9.39686 8.63317 9.39686 7.36684 10.1454 6.58579C10.8939 5.80474 12.1074 5.80474 12.8559 6.58579" stroke="#365B71" stroke-width="1.1875" stroke-linecap="round" stroke-linejoin="round"/>
</svg>
